<?xml version="1.0" encoding="UTF-8" standalone="no"?>
<!DOCTYPE svg PUBLIC "-//W3C//DTD SVG 1.1//EN"
 "http://www.w3.org/Graphics/SVG/1.1/DTD/svg11.dtd">
<!-- Generated by graphviz version 2.38.0 (20140413.2041)
 -->
<!-- Title: G Pages: 1 -->
<svg width="635pt" height="914pt"
 viewBox="0.00 0.00 634.99 914.00" xmlns="http://www.w3.org/2000/svg" xmlns:xlink="http://www.w3.org/1999/xlink">
<g id="graph0" class="graph" transform="scale(1 1) rotate(0) translate(4 910)">
<title>G</title>
<polygon fill="white" stroke="none" points="-4,4 -4,-910 630.986,-910 630.986,4 -4,4"/>
<g id="clust1" class="cluster"><title>cluster_FeedDupeFilter</title>
<path fill="none" stroke="gray" d="M24.9931,-98C24.9931,-98 606.986,-98 606.986,-98 612.986,-98 618.986,-104 618.986,-110 618.986,-110 618.986,-886 618.986,-886 618.986,-892 612.986,-898 606.986,-898 606.986,-898 24.9931,-898 24.9931,-898 18.9931,-898 12.9931,-892 12.9931,-886 12.9931,-886 12.9931,-110 12.9931,-110 12.9931,-104 18.9931,-98 24.9931,-98"/>
<text text-anchor="middle" x="315.99" y="-885.2" font-family="Times,serif" font-size="11.00" fill="gray">FeedDupeFilter</text>
</g>
<g id="clust2" class="cluster"><title>cluster_FeedDupeFilter\Archive</title>
<path fill="none" stroke="gray" d="M258.986,-502C258.986,-502 565.486,-502 565.486,-502 571.486,-502 577.486,-508 577.486,-514 577.486,-514 577.486,-562 577.486,-562 577.486,-568 571.486,-574 565.486,-574 565.486,-574 258.986,-574 258.986,-574 252.986,-574 246.986,-568 246.986,-562 246.986,-562 246.986,-514 246.986,-514 246.986,-508 252.986,-502 258.986,-502"/>
<text text-anchor="middle" x="412.236" y="-561.2" font-family="Times,serif" font-size="11.00" fill="gray">Archive</text>
</g>
<g id="clust3" class="cluster"><title>cluster_FeedDupeFilter\Feed</title>
<path fill="none" stroke="gray" d="M32.9931,-582C32.9931,-582 595.986,-582 595.986,-582 601.986,-582 607.986,-588 607.986,-594 607.986,-594 607.986,-858 607.986,-858 607.986,-864 601.986,-870 595.986,-870 595.986,-870 32.9931,-870 32.9931,-870 26.9931,-870 20.9931,-864 20.9931,-858 20.9931,-858 20.9931,-594 20.9931,-594 20.9931,-588 26.9931,-582 32.9931,-582"/>
<text text-anchor="middle" x="314.49" y="-857.2" font-family="Times,serif" font-size="11.00" fill="gray">Feed</text>
</g>
<g id="clust4" class="cluster"><title>cluster_FeedDupeFilter\Identifier</title>
<path fill="none" stroke="gray" d="M258.986,-206C258.986,-206 598.986,-206 598.986,-206 604.986,-206 610.986,-212 610.986,-218 610.986,-218 610.986,-482 610.986,-482 610.986,-488 604.986,-494 598.986,-494 598.986,-494 258.986,-494 258.986,-494 252.986,-494 246.986,-488 246.986,-482 246.986,-482 246.986,-218 246.986,-218 246.986,-212 252.986,-206 258.986,-206"/>
<text text-anchor="middle" x="428.986" y="-481.2" font-family="Times,serif" font-size="11.00" fill="gray">Identifier</text>
</g>
<!-- \\FeedDupeFilter\\Archive\\ArchiveBase -->
<g id="node1" class="node"><title>\\FeedDupeFilter\\Archive\\ArchiveBase</title>
<g id="a_node1"><a xlink:href="Archive.ArchiveBase.html" xlink:title="«abstract»&lt;br/&gt;ArchiveBase" target="_parent">
<polygon fill="none" stroke="black" points="345.986,-546 254.986,-546 254.986,-510 345.986,-510 345.986,-546"/>
<text text-anchor="start" x="266.486" y="-531.2" font-family="Courier,monospace" font-size="11.00">«abstract»</text>
<text text-anchor="start" x="262.986" y="-519.2" font-family="Courier,monospace" font-size="11.00">ArchiveBase</text>
</a>
</g>
</g>
<!-- \\Countable -->
<g id="node21" class="node"><title>\\Countable</title>
<ellipse fill="none" stroke="black" cx="77.9931" cy="-18" rx="51.9908" ry="18"/>
<text text-anchor="middle" x="77.9931" y="-14.3" font-family="Times,serif" font-size="14.00" fill="gray">\\Countable</text>
</g>
<!-- \\FeedDupeFilter\\Archive\\ArchiveBase&#45;&gt;\\Countable -->
<g id="edge10" class="edge"><title>\\FeedDupeFilter\\Archive\\ArchiveBase&#45;&gt;\\Countable</title>
<path fill="none" stroke="black" stroke-dasharray="1,5" d="M254.741,-517.295C244.588,-512.881 234.803,-506.682 227.986,-498 102.1,-337.651 286.624,-201.502 155.986,-45 150.314,-38.2053 142.824,-33.1189 134.742,-29.3118"/>
<polygon fill="none" stroke="black" points="136.012,-26.0501 125.43,-25.5341 133.381,-32.5367 136.012,-26.0501"/>
</g>
<!-- \\FeedDupeFilter\\Archive\\FileArchive -->
<g id="node2" class="node"><title>\\FeedDupeFilter\\Archive\\FileArchive</title>
<g id="a_node2"><a xlink:href="Archive.FileArchive.html" xlink:title="FileArchive" target="_parent">
<polygon fill="none" stroke="black" points="569.486,-546 478.486,-546 478.486,-510 569.486,-510 569.486,-546"/>
<text text-anchor="middle" x="523.986" y="-525.2" font-family="Courier,monospace" font-size="11.00">FileArchive</text>
</a>
</g>
</g>
<!-- \\FeedDupeFilter\\Archive\\FileArchive&#45;&gt;\\FeedDupeFilter\\Archive\\ArchiveBase -->
<g id="edge1" class="edge"><title>\\FeedDupeFilter\\Archive\\FileArchive&#45;&gt;\\FeedDupeFilter\\Archive\\ArchiveBase</title>
<path fill="none" stroke="black" d="M478.429,-528C443.324,-528 394.206,-528 356.624,-528"/>
<polygon fill="none" stroke="black" points="356.352,-524.5 346.352,-528 356.352,-531.5 356.352,-524.5"/>
</g>
<!-- \\FeedDupeFilter\\Feed\\AtomFeedItem -->
<g id="node3" class="node"><title>\\FeedDupeFilter\\Feed\\AtomFeedItem</title>
<g id="a_node3"><a xlink:href="Feed.AtomFeedItem.html" xlink:title="AtomFeedItem" target="_parent">
<polygon fill="none" stroke="black" points="349.486,-734 251.486,-734 251.486,-698 349.486,-698 349.486,-734"/>
<text text-anchor="middle" x="300.486" y="-713.2" font-family="Courier,monospace" font-size="11.00">AtomFeedItem</text>
</a>
</g>
</g>
<!-- \\FeedDupeFilter\\Feed\\FeedItemBase -->
<g id="node5" class="node"><title>\\FeedDupeFilter\\Feed\\FeedItemBase</title>
<g id="a_node5"><a xlink:href="Feed.FeedItemBase.html" xlink:title="«abstract»&lt;br/&gt;FeedItemBase" target="_parent">
<polygon fill="none" stroke="black" points="126.993,-788 28.9931,-788 28.9931,-752 126.993,-752 126.993,-788"/>
<text text-anchor="start" x="43.9931" y="-773.2" font-family="Courier,monospace" font-size="11.00">«abstract»</text>
<text text-anchor="start" x="36.9931" y="-761.2" font-family="Courier,monospace" font-size="11.00">FeedItemBase</text>
</a>
</g>
</g>
<!-- \\FeedDupeFilter\\Feed\\AtomFeedItem&#45;&gt;\\FeedDupeFilter\\Feed\\FeedItemBase -->
<g id="edge2" class="edge"><title>\\FeedDupeFilter\\Feed\\AtomFeedItem&#45;&gt;\\FeedDupeFilter\\Feed\\FeedItemBase</title>
<path fill="none" stroke="black" d="M251.37,-727.784C217.665,-736.038 172.457,-747.11 136.794,-755.844"/>
<polygon fill="none" stroke="black" points="135.887,-752.463 127.006,-758.241 137.552,-759.262 135.887,-752.463"/>
</g>
<!-- \\FeedDupeFilter\\Feed\\AtomFeedManipulator -->
<g id="node4" class="node"><title>\\FeedDupeFilter\\Feed\\AtomFeedManipulator</title>
<g id="a_node4"><a xlink:href="Feed.AtomFeedManipulator.html" xlink:title="AtomFeedManipulator" target="_parent">
<polygon fill="none" stroke="black" points="596.486,-680 451.486,-680 451.486,-644 596.486,-644 596.486,-680"/>
<text text-anchor="middle" x="523.986" y="-659.2" font-family="Courier,monospace" font-size="11.00">AtomFeedManipulator</text>
</a>
</g>
</g>
<!-- \\FeedDupeFilter\\Feed\\FeedManipulatorBase -->
<g id="node6" class="node"><title>\\FeedDupeFilter\\Feed\\FeedManipulatorBase</title>
<g id="a_node6"><a xlink:href="Feed.FeedManipulatorBase.html" xlink:title="«abstract»&lt;br/&gt;FeedManipulatorBase" target="_parent">
<polygon fill="none" stroke="black" points="372.986,-653 227.986,-653 227.986,-617 372.986,-617 372.986,-653"/>
<text text-anchor="start" x="266.486" y="-638.2" font-family="Courier,monospace" font-size="11.00">«abstract»</text>
<text text-anchor="start" x="235.986" y="-626.2" font-family="Courier,monospace" font-size="11.00">FeedManipulatorBase</text>
</a>
</g>
</g>
<!-- \\FeedDupeFilter\\Feed\\AtomFeedManipulator&#45;&gt;\\FeedDupeFilter\\Feed\\FeedManipulatorBase -->
<g id="edge3" class="edge"><title>\\FeedDupeFilter\\Feed\\AtomFeedManipulator&#45;&gt;\\FeedDupeFilter\\Feed\\FeedManipulatorBase</title>
<path fill="none" stroke="black" d="M451.377,-653.271C429.675,-650.626 405.671,-647.7 383.35,-644.979"/>
<polygon fill="none" stroke="black" points="383.578,-641.481 373.228,-643.745 382.731,-648.429 383.578,-641.481"/>
</g>
<!-- \\FeedDupeFilter\\Feed\\FeedManipulatorBase&#45;&gt;\\Countable -->
<g id="edge12" class="edge"><title>\\FeedDupeFilter\\Feed\\FeedManipulatorBase&#45;&gt;\\Countable</title>
<path fill="none" stroke="black" stroke-dasharray="1,5" d="M266.876,-616.875C252.605,-607.222 237.072,-594.017 227.986,-578 110.039,-370.085 307.016,-230.285 155.986,-45 150.394,-38.1395 142.945,-33.0195 134.878,-29.1991"/>
<polygon fill="none" stroke="black" points="136.157,-25.9406 125.575,-25.4144 133.519,-32.4246 136.157,-25.9406"/>
</g>
<!-- \\IteratorAggregate -->
<g id="node22" class="node"><title>\\IteratorAggregate</title>
<ellipse fill="none" stroke="black" cx="77.9931" cy="-72" rx="77.9862" ry="18"/>
<text text-anchor="middle" x="77.9931" y="-68.3" font-family="Times,serif" font-size="14.00" fill="gray">\\IteratorAggregate</text>
</g>
<!-- \\FeedDupeFilter\\Feed\\FeedManipulatorBase&#45;&gt;\\IteratorAggregate -->
<g id="edge11" class="edge"><title>\\FeedDupeFilter\\Feed\\FeedManipulatorBase&#45;&gt;\\IteratorAggregate</title>
<path fill="none" stroke="black" stroke-dasharray="1,5" d="M269.03,-616.967C254.72,-607.095 238.529,-593.676 227.986,-578 121.091,-419.059 89.4102,-182.058 81.3957,-100.655"/>
<polygon fill="none" stroke="black" points="84.836,-99.8546 80.4165,-90.2256 77.8667,-100.509 84.836,-99.8546"/>
</g>
<!-- \\FeedDupeFilter\\Feed\\Rss09FeedItem -->
<g id="node7" class="node"><title>\\FeedDupeFilter\\Feed\\Rss09FeedItem</title>
<g id="a_node7"><a xlink:href="Feed.Rss09FeedItem.html" xlink:title="Rss09FeedItem" target="_parent">
<polygon fill="none" stroke="black" points="575.986,-842 471.986,-842 471.986,-806 575.986,-806 575.986,-842"/>
<text text-anchor="middle" x="523.986" y="-821.2" font-family="Courier,monospace" font-size="11.00">Rss09FeedItem</text>
</a>
</g>
</g>
<!-- \\FeedDupeFilter\\Feed\\Rss1FeedItem -->
<g id="node9" class="node"><title>\\FeedDupeFilter\\Feed\\Rss1FeedItem</title>
<g id="a_node9"><a xlink:href="Feed.Rss1FeedItem.html" xlink:title="Rss1FeedItem" target="_parent">
<polygon fill="none" stroke="black" points="349.486,-842 251.486,-842 251.486,-806 349.486,-806 349.486,-842"/>
<text text-anchor="middle" x="300.486" y="-821.2" font-family="Courier,monospace" font-size="11.00">Rss1FeedItem</text>
</a>
</g>
</g>
<!-- \\FeedDupeFilter\\Feed\\Rss09FeedItem&#45;&gt;\\FeedDupeFilter\\Feed\\Rss1FeedItem -->
<g id="edge4" class="edge"><title>\\FeedDupeFilter\\Feed\\Rss09FeedItem&#45;&gt;\\FeedDupeFilter\\Feed\\Rss1FeedItem</title>
<path fill="none" stroke="black" d="M471.891,-824C438.402,-824 394.539,-824 359.702,-824"/>
<polygon fill="none" stroke="black" points="359.668,-820.5 349.668,-824 359.668,-827.5 359.668,-820.5"/>
</g>
<!-- \\FeedDupeFilter\\Feed\\Rss09FeedManipulator -->
<g id="node8" class="node"><title>\\FeedDupeFilter\\Feed\\Rss09FeedManipulator</title>
<g id="a_node8"><a xlink:href="Feed.Rss09FeedManipulator.html" xlink:title="Rss09FeedManipulator" target="_parent">
<polygon fill="none" stroke="black" points="599.986,-626 447.986,-626 447.986,-590 599.986,-590 599.986,-626"/>
<text text-anchor="middle" x="523.986" y="-605.2" font-family="Courier,monospace" font-size="11.00">Rss09FeedManipulator</text>
</a>
</g>
</g>
<!-- \\FeedDupeFilter\\Feed\\Rss09FeedManipulator&#45;&gt;\\FeedDupeFilter\\Feed\\FeedManipulatorBase -->
<g id="edge5" class="edge"><title>\\FeedDupeFilter\\Feed\\Rss09FeedManipulator&#45;&gt;\\FeedDupeFilter\\Feed\\FeedManipulatorBase</title>
<path fill="none" stroke="black" d="M447.687,-617.179C426.994,-619.701 404.454,-622.449 383.407,-625.014"/>
<polygon fill="none" stroke="black" points="382.713,-621.573 373.21,-626.257 383.56,-628.521 382.713,-621.573"/>
</g>
<!-- \\FeedDupeFilter\\Feed\\Rss1FeedItem&#45;&gt;\\FeedDupeFilter\\Feed\\FeedItemBase -->
<g id="edge6" class="edge"><title>\\FeedDupeFilter\\Feed\\Rss1FeedItem&#45;&gt;\\FeedDupeFilter\\Feed\\FeedItemBase</title>
<path fill="none" stroke="black" d="M251.37,-812.216C217.665,-803.962 172.457,-792.89 136.794,-784.156"/>
<polygon fill="none" stroke="black" points="137.552,-780.738 127.006,-781.759 135.887,-787.537 137.552,-780.738"/>
</g>
<!-- \\FeedDupeFilter\\Feed\\Rss1FeedManipulator -->
<g id="node10" class="node"><title>\\FeedDupeFilter\\Feed\\Rss1FeedManipulator</title>
<g id="a_node10"><a xlink:href="Feed.Rss1FeedManipulator.html" xlink:title="Rss1FeedManipulator" target="_parent">
<polygon fill="none" stroke="black" points="596.486,-788 451.486,-788 451.486,-752 596.486,-752 596.486,-788"/>
<text text-anchor="middle" x="523.986" y="-767.2" font-family="Courier,monospace" font-size="11.00">Rss1FeedManipulator</text>
</a>
</g>
</g>
<!-- \\FeedDupeFilter\\Feed\\Rss1FeedManipulator&#45;&gt;\\FeedDupeFilter\\Feed\\FeedManipulatorBase -->
<g id="edge7" class="edge"><title>\\FeedDupeFilter\\Feed\\Rss1FeedManipulator&#45;&gt;\\FeedDupeFilter\\Feed\\FeedManipulatorBase</title>
<path fill="none" stroke="black" d="M464.209,-751.893C457.595,-749.202 451.058,-746.232 444.986,-743 443.462,-742.189 375.303,-690.762 333.481,-659.175"/>
<polygon fill="none" stroke="black" points="335.584,-656.377 325.495,-653.143 331.365,-661.963 335.584,-656.377"/>
</g>
<!-- \\FeedDupeFilter\\Feed\\Rss2FeedItem -->
<g id="node11" class="node"><title>\\FeedDupeFilter\\Feed\\Rss2FeedItem</title>
<g id="a_node11"><a xlink:href="Feed.Rss2FeedItem.html" xlink:title="Rss2FeedItem" target="_parent">
<polygon fill="none" stroke="black" points="349.486,-788 251.486,-788 251.486,-752 349.486,-752 349.486,-788"/>
<text text-anchor="middle" x="300.486" y="-767.2" font-family="Courier,monospace" font-size="11.00">Rss2FeedItem</text>
</a>
</g>
</g>
<!-- \\FeedDupeFilter\\Feed\\Rss2FeedItem&#45;&gt;\\FeedDupeFilter\\Feed\\FeedItemBase -->
<g id="edge8" class="edge"><title>\\FeedDupeFilter\\Feed\\Rss2FeedItem&#45;&gt;\\FeedDupeFilter\\Feed\\FeedItemBase</title>
<path fill="none" stroke="black" d="M251.37,-770C217.81,-770 172.843,-770 137.252,-770"/>
<polygon fill="none" stroke="black" points="137.006,-766.5 127.006,-770 137.006,-773.5 137.006,-766.5"/>
</g>
<!-- \\FeedDupeFilter\\Feed\\Rss2FeedManipulator -->
<g id="node12" class="node"><title>\\FeedDupeFilter\\Feed\\Rss2FeedManipulator</title>
<g id="a_node12"><a xlink:href="Feed.Rss2FeedManipulator.html" xlink:title="Rss2FeedManipulator" target="_parent">
<polygon fill="none" stroke="black" points="596.486,-734 451.486,-734 451.486,-698 596.486,-698 596.486,-734"/>
<text text-anchor="middle" x="523.986" y="-713.2" font-family="Courier,monospace" font-size="11.00">Rss2FeedManipulator</text>
</a>
</g>
</g>
<!-- \\FeedDupeFilter\\Feed\\Rss2FeedManipulator&#45;&gt;\\FeedDupeFilter\\Feed\\FeedManipulatorBase -->
<g id="edge9" class="edge"><title>\\FeedDupeFilter\\Feed\\Rss2FeedManipulator&#45;&gt;\\FeedDupeFilter\\Feed\\FeedManipulatorBase</title>
<path fill="none" stroke="black" d="M470.053,-697.89C461.654,-694.955 453.073,-691.921 444.986,-689 416.222,-678.612 384.373,-666.671 358.002,-656.664"/>
<polygon fill="none" stroke="black" points="359.141,-653.353 348.55,-653.072 356.654,-659.896 359.141,-653.353"/>
</g>
<!-- \\FeedDupeFilter\\Identifier\\DateIdentifier -->
<g id="node13" class="node"><title>\\FeedDupeFilter\\Identifier\\DateIdentifier</title>
<g id="a_node13"><a xlink:href="Identifier.DateIdentifier.html" xlink:title="DateIdentifier" target="_parent">
<polygon fill="none" stroke="black" points="579.486,-466 468.486,-466 468.486,-430 579.486,-430 579.486,-466"/>
<text text-anchor="middle" x="523.986" y="-445.2" font-family="Courier,monospace" font-size="11.00">DateIdentifier</text>
</a>
</g>
</g>
<!-- \\FeedDupeFilter\\Identifier\\IIdentifier -->
<g id="node16" class="node"><title>\\FeedDupeFilter\\Identifier\\IIdentifier</title>
<g id="a_node16"><a xlink:href="Identifier.IIdentifier.html" xlink:title="IIdentifier" target="_parent">
<polygon fill="none" stroke="black" points="345.986,-358 254.986,-358 254.986,-322 345.986,-322 345.986,-358"/>
<text text-anchor="middle" x="300.486" y="-337.2" font-family="Courier,monospace" font-size="11.00">IIdentifier</text>
</a>
</g>
</g>
<!-- \\FeedDupeFilter\\Identifier\\DateIdentifier&#45;&gt;\\FeedDupeFilter\\Identifier\\IIdentifier -->
<g id="edge13" class="edge"><title>\\FeedDupeFilter\\Identifier\\DateIdentifier&#45;&gt;\\FeedDupeFilter\\Identifier\\IIdentifier</title>
<path fill="none" stroke="black" stroke-dasharray="1,5" d="M468.363,-430.505C460.43,-427.558 452.432,-424.357 444.986,-421 407.568,-404.13 367.019,-380.728 338.601,-363.414"/>
<polygon fill="none" stroke="black" points="340.173,-360.272 329.82,-358.022 336.511,-366.238 340.173,-360.272"/>
</g>
<!-- \\FeedDupeFilter\\Identifier\\DescriptionIdentifier -->
<g id="node14" class="node"><title>\\FeedDupeFilter\\Identifier\\DescriptionIdentifier</title>
<g id="a_node14"><a xlink:href="Identifier.DescriptionIdentifier.html" xlink:title="DescriptionIdentifier" target="_parent">
<polygon fill="none" stroke="black" points="602.986,-412 444.986,-412 444.986,-376 602.986,-376 602.986,-412"/>
<text text-anchor="middle" x="523.986" y="-391.2" font-family="Courier,monospace" font-size="11.00">DescriptionIdentifier</text>
</a>
</g>
</g>
<!-- \\FeedDupeFilter\\Identifier\\DescriptionIdentifier&#45;&gt;\\FeedDupeFilter\\Identifier\\IIdentifier -->
<g id="edge14" class="edge"><title>\\FeedDupeFilter\\Identifier\\DescriptionIdentifier&#45;&gt;\\FeedDupeFilter\\Identifier\\IIdentifier</title>
<path fill="none" stroke="black" stroke-dasharray="1,5" d="M448.922,-375.944C418.567,-368.544 384.068,-360.133 356.077,-353.309"/>
<polygon fill="none" stroke="black" points="356.623,-349.839 346.078,-350.871 354.965,-356.64 356.623,-349.839"/>
</g>
<!-- \\FeedDupeFilter\\Identifier\\IdIdentifier -->
<g id="node15" class="node"><title>\\FeedDupeFilter\\Identifier\\IdIdentifier</title>
<g id="a_node15"><a xlink:href="Identifier.IdIdentifier.html" xlink:title="IdIdentifier" target="_parent">
<polygon fill="none" stroke="black" points="572.986,-358 474.986,-358 474.986,-322 572.986,-322 572.986,-358"/>
<text text-anchor="middle" x="523.986" y="-337.2" font-family="Courier,monospace" font-size="11.00">IdIdentifier</text>
</a>
</g>
</g>
<!-- \\FeedDupeFilter\\Identifier\\IdIdentifier&#45;&gt;\\FeedDupeFilter\\Identifier\\IIdentifier -->
<g id="edge15" class="edge"><title>\\FeedDupeFilter\\Identifier\\IdIdentifier&#45;&gt;\\FeedDupeFilter\\Identifier\\IIdentifier</title>
<path fill="none" stroke="black" stroke-dasharray="1,5" d="M474.924,-340C440.067,-340 392.856,-340 356.492,-340"/>
<polygon fill="none" stroke="black" points="356.062,-336.5 346.062,-340 356.062,-343.5 356.062,-336.5"/>
</g>
<!-- \\FeedDupeFilter\\Identifier\\LinkIdentifier -->
<g id="node17" class="node"><title>\\FeedDupeFilter\\Identifier\\LinkIdentifier</title>
<g id="a_node17"><a xlink:href="Identifier.LinkIdentifier.html" xlink:title="LinkIdentifier" target="_parent">
<polygon fill="none" stroke="black" points="579.486,-304 468.486,-304 468.486,-268 579.486,-268 579.486,-304"/>
<text text-anchor="middle" x="523.986" y="-283.2" font-family="Courier,monospace" font-size="11.00">LinkIdentifier</text>
</a>
</g>
</g>
<!-- \\FeedDupeFilter\\Identifier\\LinkIdentifier&#45;&gt;\\FeedDupeFilter\\Identifier\\IIdentifier -->
<g id="edge16" class="edge"><title>\\FeedDupeFilter\\Identifier\\LinkIdentifier&#45;&gt;\\FeedDupeFilter\\Identifier\\IIdentifier</title>
<path fill="none" stroke="black" stroke-dasharray="1,5" d="M468.233,-299.348C434.069,-307.677 390.258,-318.358 356.117,-326.681"/>
<polygon fill="none" stroke="black" points="355.194,-323.304 346.308,-329.073 356.852,-330.105 355.194,-323.304"/>
</g>
<!-- \\FeedDupeFilter\\Identifier\\TitleIdentifier -->
<g id="node18" class="node"><title>\\FeedDupeFilter\\Identifier\\TitleIdentifier</title>
<g id="a_node18"><a xlink:href="Identifier.TitleIdentifier.html" xlink:title="TitleIdentifier" target="_parent">
<polygon fill="none" stroke="black" points="582.986,-250 464.986,-250 464.986,-214 582.986,-214 582.986,-250"/>
<text text-anchor="middle" x="523.986" y="-229.2" font-family="Courier,monospace" font-size="11.00">TitleIdentifier</text>
</a>
</g>
</g>
<!-- \\FeedDupeFilter\\Identifier\\TitleIdentifier&#45;&gt;\\FeedDupeFilter\\Identifier\\IIdentifier -->
<g id="edge17" class="edge"><title>\\FeedDupeFilter\\Identifier\\TitleIdentifier&#45;&gt;\\FeedDupeFilter\\Identifier\\IIdentifier</title>
<path fill="none" stroke="black" stroke-dasharray="1,5" d="M466.693,-250.119C459.31,-252.892 451.91,-255.878 444.986,-259 407.568,-275.87 367.019,-299.272 338.601,-316.586"/>
<polygon fill="none" stroke="black" points="336.511,-313.762 329.82,-321.978 340.173,-319.728 336.511,-313.762"/>
</g>
<!-- \\FeedDupeFilter\\Core -->
<g id="node19" class="node"><title>\\FeedDupeFilter\\Core</title>
<g id="a_node19"><a xlink:href="Core.html" xlink:title="Core" target="_parent">
<polygon fill="none" stroke="black" points="550.986,-196 496.986,-196 496.986,-160 550.986,-160 550.986,-196"/>
<text text-anchor="middle" x="523.986" y="-175.2" font-family="Courier,monospace" font-size="11.00">Core</text>
</a>
</g>
</g>
<!-- \\FeedDupeFilter\\HttpClient -->
<g id="node20" class="node"><title>\\FeedDupeFilter\\HttpClient</title>
<g id="a_node20"><a xlink:href="HttpClient.html" xlink:title="HttpClient" target="_parent">
<polygon fill="none" stroke="black" points="565.986,-142 481.986,-142 481.986,-106 565.986,-106 565.986,-142"/>
<text text-anchor="middle" x="523.986" y="-121.2" font-family="Courier,monospace" font-size="11.00">HttpClient</text>
</a>
</g>
</g>
</g>
</svg>
